<?xml version="1.0" encoding="utf-8"?>
<!-- Generator: Adobe Illustrator 27.1.0, SVG Export Plug-In . SVG Version: 6.00 Build 0)  -->
<svg version="1.1" id="Capa_1" xmlns="http://www.w3.org/2000/svg" xmlns:xlink="http://www.w3.org/1999/xlink" x="0px" y="0px"
	 viewBox="0 0 1200 1200" enable-background="new 0 0 1200 1200" xml:space="preserve">
<path fill="#383736" d="M906.809,786.279c0,0-291.87-726.218-291.87-726.218c-5.2-13.492-24.502-13.218-29.949-0.36
	c-0.243,0.593-291.528,725.502-291.741,726.155c-1.014,2.366-0.67,5.197,1.12,7.276c2.505,2.907,6.895,3.23,9.798,0.721
	c10.465-7.779,20.82-15.69,31.17-23.605c31.26-23.69,61.919-47.706,92.357-72.695c9.408-7.753,18.472-15.401,28.926-20.405
	c32.181-16.293,62.906,17.838,54.486,46.318c-6.744,37.616-17.059,90.489-22.956,127.679c0,0,0.172,3.063,0.172,3.064
	c0,0,0.044,0.798,0.044,0.8c0.053,0.995,75.752,285.953,75.96,287.011c1.111,4.226,5.006,7.328,9.573,7.289
	c0,0,51.98,0.69,51.98,0.69c4.672,0.08,9-3.084,10.236-7.799l75.087-286.139c0.172-0.597,0.258-1.214,0.25-1.858l0.322-3.056
	c0.008-0.084,0.008-0.176-0.003-0.263c-5.627-42.105-13.483-83.768-21.926-125.256c0,0-1.279-6.549-1.278-6.549
	c-4.431-21.768,12.568-45.073,35.067-45.772c23.171-1.334,43.612,22.629,61.119,35.822l21.834,17.73
	c29.279,23.136,58.852,45.765,89.312,67.425c1.908,1.565,4.586,2.064,7.035,1.081C906.512,793.925,908.248,789.857,906.809,786.279z
	 M802.801,688.365c-18.343-15.905-37.445-37.255-62.516-43.218c-39.796-10.28-80.236,21.304-81.304,62.052
	c-1.028,12.617,3.838,26.068,6.785,38.159c9.304,33.473,21.151,79.007,31.439,105.788c0,0,0.277,2.633,0.314,2.982
	c-1.464,3.779-66.922,229.956-79.712,274.746c-9.979,0.133-26.806,0.356-36.474,0.484c-12.65-44.108-77.543-271.488-79.079-275.255
	l0.098-1.741c10.463-35.604,24.952-86.497,34.995-122.622c6.345-18.198,4.382-39.227-5.612-55.807
	c-17.523-30.083-58.516-39.904-88.312-22.647c-13.663,7.396-24.038,17.45-33.496,26.167l-28.537,26.312
	c-18.795,17.348-38.917,35.3-57.584,52.77c-1.545,1.426-3.084,2.858-4.628,4.285c49.788-115.745,227.493-528.869,280.712-652.59
	c25.974,60.363,256.506,596.116,280.321,651.462C854.748,735.535,828.4,711.997,802.801,688.365z M570.764,372.383l-93.654,173.374
	l40.138-18.377L392.374,655.576l201.905-486.592L559.06,283.984l29.469-28.031L515.017,423.67L570.764,372.383z M811.52,655.576
	L686.648,527.38l40.138,18.377l-93.655-173.374l55.747,51.287l-73.512-167.717l29.469,28.031l-35.219-114.999L811.52,655.576z
	 M628.789,760.709l35.708,119.521l-64.271,227.078L535.56,876.242l28.081-115.533l16.207,123.235l23.107-217.587l9.628,221.438
	L628.789,760.709z M602.545,421.713l70.168,162.437L633.9,552.526l24.437,45.461L602.275,555.4h-4.492l-56.062,42.586l24.438-45.461
	l-38.812,31.625l70.168-162.437H602.545z"/>
</svg>
